<svg width="24" height="24" viewBox="0 0 24 24" fill="none" xmlns="http://www.w3.org/2000/svg">
<g clip-path="url(#clip0_436_3344)">
<path fill-rule="evenodd" clip-rule="evenodd" d="M19.2686 4.73139C18.961 4.42385 18.4624 4.42385 18.1549 4.73139L11.9992 10.887L5.84361 4.73141C5.53608 4.42387 5.03746 4.42387 4.72992 4.73141C4.42238 5.03895 4.42238 5.53756 4.72992 5.8451L10.8855 12.0007L4.72997 18.1563C4.42243 18.4638 4.42243 18.9624 4.72997 19.27C5.0375 19.5775 5.53612 19.5775 5.84366 19.27L11.9992 13.1144L18.1548 19.27C18.4624 19.5775 18.961 19.5775 19.2685 19.27C19.5761 18.9625 19.5761 18.4639 19.2685 18.1563L13.1129 12.0007L19.2686 5.84508C19.5761 5.53754 19.5761 5.03892 19.2686 4.73139Z" fill="#3D3D3D"/>
</g>
<defs>
<clipPath id="clip0_436_3344">
<rect width="24" height="24" fill="white"/>
</clipPath>
</defs>
</svg>
